D:\school\WTK\thesis\model\3dpredictsim\Results\debug\Pog_s1_tmt_bCst_d00_k1000000_ig24_act_TTM_GRF.mot
nRows=15
nColumns=19

name D:\school\WTK\thesis\model\3dpredictsim\Results\debug\Pog_s1_tmt_bCst_d00_k1000000_ig24_act_TTM_GRF.mot
datacolumns 19
datarows 15
range 0.0000000000 0.1621828497
endheader
time 	ground_force_vx	ground_force_vy	ground_force_vz	ground_force_px	ground_force_py	ground_force_pz	1_ground_force_vx	1_ground_force_vy	1_ground_force_vz	1_ground_force_px	1_ground_force_py	1_ground_force_pz	ground_torque_x	ground_torque_y	ground_torque_z	1_ground_torque_x	1_ground_torque_y	1_ground_torque_z
        0.0000000000	      -55.8591346884	       39.2644730160	       10.9649631708	        0.1604364520	        0.0000000000	        0.0528247402	      106.9464176344	      438.1474164385	       -0.6862596755	       -0.3401353151	        0.0000000000	       -0.0359775987	        0.0000000000	        0.0000000000	        0.0000000000	        0.0000000000	        0.0000000000	        0.0000000000	
        0.0115844893	     -113.4279588573	       98.2225942976	       28.8012994286	        0.1714118798	        0.0000000000	        0.0506561416	       76.2174703561	      337.3999495623	       -7.1474424699	       -0.3333230583	        0.0000000000	       -0.0332924040	        0.0000000000	        0.0000000000	        0.0000000000	        0.0000000000	        0.0000000000	        0.0000000000	
        0.0231689785	      -98.9609918377	      220.6041415310	       40.8352348687	        0.1788823493	        0.0000000000	        0.0493095723	       42.6889487413	      226.9006831184	      -15.3072840877	       -0.3212554203	        0.0000000000	       -0.0281144205	        0.0000000000	        0.0000000000	        0.0000000000	        0.0000000000	        0.0000000000	        0.0000000000	
        0.0347534678	      -56.2877579881	      424.4182977253	        6.2378280800	        0.1838356166	        0.0000000000	        0.0487226992	       26.5502605657	      167.8529061976	      -18.4373688038	       -0.3121844886	        0.0000000000	       -0.0237096472	        0.0000000000	        0.0000000000	        0.0000000000	        0.0000000000	        0.0000000000	        0.0000000000	
        0.0463379571	      -76.3564136240	      666.9548787675	      -13.0457882882	        0.1936719635	        0.0000000000	        0.0507636041	       23.5189118615	      134.1963933044	      -15.8092677244	       -0.3119373210	        0.0000000000	       -0.0236158825	        0.0000000000	        0.0000000000	        0.0000000000	        0.0000000000	        0.0000000000	        0.0000000000	
        0.0579224463	     -109.5093088657	      840.0286179207	      -21.2691185807	        0.2014603956	        0.0000000000	        0.0525632052	       14.4080735803	       88.2710921932	      -14.4088078026	       -0.3116856650	        0.0000000000	       -0.0237232310	        0.0000000000	        0.0000000000	        0.0000000000	        0.0000000000	        0.0000000000	        0.0000000000	
        0.0695069356	     -123.0644282369	      896.2715940481	      -22.8709538493	        0.2064743239	        0.0000000000	        0.0536216220	        1.2908049618	       36.3923348476	       -8.8723068606	       -0.3120271644	        0.0000000000	       -0.0238565261	        0.0000000000	        0.0000000000	        0.0000000000	        0.0000000000	        0.0000000000	        0.0000000000	
        0.0810914248	     -119.0976846085	      890.0506669680	      -22.1382672197	        0.2103012361	        0.0000000000	        0.0542035956	        0.3960751015	       -0.4116692478	        0.0291446869	        0.0000000000	        0.0000000000	        0.0000000000	        0.0000000000	        0.0000000000	        0.0000000000	        0.0000000000	        0.0000000000	        0.0000000000	
        0.0926759141	     -106.7907689861	      854.7212736680	      -21.4815017698	        0.2143233610	        0.0000000000	        0.0544167700	        0.0015312930	       -0.0012741728	       -0.0000660709	        0.0000000000	        0.0000000000	        0.0000000000	        0.0000000000	        0.0000000000	        0.0000000000	        0.0000000000	        0.0000000000	        0.0000000000	
        0.1042604034	      -94.2324085942	      809.1846964157	      -20.4566300207	        0.2188759326	        0.0000000000	        0.0543740392	        0.0012067421	       -0.0008591389	       -0.0000780653	        0.0000000000	        0.0000000000	        0.0000000000	        0.0000000000	        0.0000000000	        0.0000000000	        0.0000000000	        0.0000000000	        0.0000000000	
        0.1158448926	      -84.7751285409	      770.2797508292	      -19.9297501613	        0.2243546460	        0.0000000000	        0.0541021457	        0.0113125129	       -0.0071653240	       -0.0008214529	        0.0000000000	        0.0000000000	        0.0000000000	        0.0000000000	        0.0000000000	        0.0000000000	        0.0000000000	        0.0000000000	        0.0000000000	
        0.1274293819	      -75.5696679128	      735.6701011714	      -19.8304691535	        0.2299191524	        0.0000000000	        0.0537046718	       -0.0815068539	        0.0470849315	        0.0062464040	        0.0000000000	        0.0000000000	        0.0000000000	        0.0000000000	        0.0000000000	        0.0000000000	        0.0000000000	        0.0000000000	        0.0000000000	
        0.1390138712	      -66.0241240796	      702.5507887927	      -19.9852664214	        0.2349763393	        0.0000000000	        0.0533690799	       -0.1295690480	        0.0702398252	        0.0097097573	        0.0000000000	        0.0000000000	        0.0000000000	        0.0000000000	        0.0000000000	        0.0000000000	        0.0000000000	        0.0000000000	        0.0000000000	
        0.1505983604	      -56.9708304468	      673.6405756922	      -20.3586761772	        0.2397331997	        0.0000000000	        0.0531176392	       -0.0772114658	        0.0397316082	        0.0057529800	        0.0000000000	        0.0000000000	        0.0000000000	        0.0000000000	        0.0000000000	        0.0000000000	        0.0000000000	        0.0000000000	        0.0000000000	
        0.1621828497	      -48.8671524767	      649.9183039712	      -20.7240776167	        0.2444014533	        0.0000000000	        0.0529233600	       -0.0494233688	        0.0243623129	        0.0036827336	        0.0000000000	        0.0000000000	        0.0000000000	        0.0000000000	        0.0000000000	        0.0000000000	        0.0000000000	        0.0000000000	        0.0000000000	
